<svg xmlns="http://www.w3.org/2000/svg" version="1.1" xmlns:xlink="http://www.w3.org/1999/xlink" xmlns:svgjs="http://svgjs.dev/svgjs" viewBox="0 0 800 800" opacity="1"><defs><filter id="bbburst-blur-1" x="-100%" y="-100%" width="400%" height="400%"><feGaussianBlur in="SourceGraphic" stdDeviation="1"></feGaussianBlur></filter><filter id="bbburst-blur-2" x="-100%" y="-100%" width="400%" height="400%"><feGaussianBlur in="SourceGraphic" stdDeviation="2"></feGaussianBlur></filter><filter id="bbburst-blur-3" x="-100%" y="-100%" width="400%" height="400%"><feGaussianBlur in="SourceGraphic" stdDeviation="4"></feGaussianBlur></filter><filter id="bbburst-blur-4" x="-100%" y="-100%" width="400%" height="400%"><feGaussianBlur in="SourceGraphic" stdDeviation="12"></feGaussianBlur></filter><symbol id="bbburst-shape-1" viewBox="0 0 194 167"><path d="m97 0 96.129 166.5H.871L97 0Z"></path></symbol><symbol id="bbburst-shape-10" viewBox="0 0 145 145"><circle cx="72.5" cy="72.5" r="61.5" fill="none" stroke-width="22"></circle></symbol><symbol id="bbburst-shape-13" viewBox="0 0 159 159"><path stroke-width="22" d="M11 11h137v137H11z"></path></symbol></defs><use xlink:href="#bbburst-shape-1" width="39.5590246822812" opacity="0.2455748023684181" transform="matrix(1.0292284707282846,-0.7093579879315638,0.7093579879315638,1.0292284707282846,346.29725881711306,231.6804682812808)" fill="#ff0066" filter="url(#bbburst-blur-3)"></use><use xlink:href="#bbburst-shape-1" width="34.81225530926318" opacity="0.5509659975201688" transform="matrix(0.9975913111363885,-0.06936552418299216,0.06936552418299216,0.9975913111363885,240.22171847490165,-164.1603364528609)" fill="#ff0066" filter="url(#bbburst-blur-2)"></use><use xlink:href="#bbburst-shape-13" width="41.81595260616522" opacity="-0.04848869209658058" transform="matrix(1.5470781256696038,-0.8179543221199,0.8179543221199,1.5470781256696038,-290.7126240611488,134.32232560249622)" fill="none" stroke="#ff0066" filter="url(#bbburst-blur-4)"></use><use xlink:href="#bbburst-shape-13" width="29.90431772230624" opacity="0.7182458468704607" transform="matrix(0.9140324594960878,-0.40564105190122535,0.40564105190122535,0.9140324594960878,209.88661988888862,166.44500765198836)" fill="none" stroke="#0071e3" filter="url(#bbburst-blur-1)"></use><use xlink:href="#bbburst-shape-10" width="41.94974292566421" opacity="0.2963251529222979" transform="matrix(1.2496153184018084,0.031008966695890598,-0.031008966695890598,1.2496153184018084,329.8047920543056,211.0960077124688)" fill="none" stroke="#0071e3" filter="url(#bbburst-blur-3)"></use><use xlink:href="#bbburst-shape-10" width="48.077065167322004" opacity="0.2219911948894595" transform="matrix(1.2274221280486182,-0.23650564385781908,0.23650564385781908,1.2274221280486182,624.706807867168,-55.26327200801529)" fill="none" stroke="#0071e3" filter="url(#bbburst-blur-3)"></use><use xlink:href="#bbburst-shape-13" width="38.24694214017083" opacity="0.412297436578828" transform="matrix(0.9970342688992251,0.0769588633010374,-0.0769588633010374,0.9970342688992251,256.530116440568,213.8627379520177)" fill="none" stroke="#ff0066" filter="url(#bbburst-blur-2)"></use><use xlink:href="#bbburst-shape-13" width="44.39349066317363" opacity="0.21463286767252998" transform="matrix(1.076074962677698,0.6360524150557021,-0.6360524150557021,1.076074962677698,378.6441731565245,203.34891562137943)" fill="none" stroke="#0071e3" filter="url(#bbburst-blur-3)"></use><use xlink:href="#bbburst-shape-1" width="41.2250999770624" opacity="0.5032912088999933" transform="matrix(0.9983825395952108,0.056853360775044375,-0.056853360775044375,0.9983825395952108,439.17955405320714,219.960009782702)" fill="#0071e3" filter="url(#bbburst-blur-2)"></use><use xlink:href="#bbburst-shape-10" width="35.09135767334387" opacity="0.1990077905531924" transform="matrix(1.1541211429700344,0.4801087245088776,-0.4801087245088776,1.1541211429700344,510.75677060985583,-425.31331455056016)" fill="none" stroke="#0071e3" filter="url(#bbburst-blur-3)"></use><use xlink:href="#bbburst-shape-1" width="45.497132578488575" opacity="0.13075574056669537" transform="matrix(1.1273999077788779,0.5398791049301478,-0.5398791049301478,1.1273999077788779,940.1870709999898,111.6572109549553)" fill="#ff0066" filter="url(#bbburst-blur-3)"></use><use xlink:href="#bbburst-shape-10" width="27.39393222533235" opacity="0.9487238805163921" transform="matrix(0.9995700184823955,-0.029321973860974498,0.029321973860974498,0.9995700184823955,355.55296489650607,-12.479639567367713)" fill="none" stroke="#ff0066"></use><use xlink:href="#bbburst-shape-1" width="39.305719268840534" opacity="0.582547723640183" transform="matrix(0.9807104622251609,0.19546608217824216,-0.19546608217824216,0.9807104622251609,271.7063234056802,19.62225851189106)" fill="#ff0066" filter="url(#bbburst-blur-1)"></use><use xlink:href="#bbburst-shape-10" width="31.775761087816967" opacity="0.5538916111104835" transform="matrix(0.8317352626210855,-0.5551724533085498,0.5551724533085498,0.8317352626210855,99.24178289506003,265.89768516612696)" fill="none" stroke="#0071e3" filter="url(#bbburst-blur-2)"></use><use xlink:href="#bbburst-shape-10" width="41.939297814679726" opacity="-0.06369404149130364" transform="matrix(1.6961380088482858,0.43083158535577676,-0.43083158535577676,1.6961380088482858,206.26108111208265,-633.733195124266)" fill="none" stroke="#0071e3" filter="url(#bbburst-blur-4)"></use><use xlink:href="#bbburst-shape-1" width="28.49597052978761" opacity="0.782242237724964" transform="matrix(0.9642810623866851,0.2648811671720094,-0.2648811671720094,0.9642810623866851,394.30958879452544,6.191762014181961)" fill="#ff0066"></use><use xlink:href="#bbburst-shape-1" width="49.63220666601333" opacity="0.4102236685210645" transform="matrix(0.9266890253193751,-0.3758290174436062,0.3758290174436062,0.9266890253193751,-14.681200981013575,149.04631365970067)" fill="#0071e3" filter="url(#bbburst-blur-2)"></use><use xlink:href="#bbburst-shape-13" width="47.468735819177006" opacity="0.6514295053347616" transform="matrix(0.908494293519137,-0.4178972584776838,0.4178972584776838,0.908494293519137,88.80272300004546,144.51925979444098)" fill="none" stroke="#0071e3" filter="url(#bbburst-blur-1)"></use><use xlink:href="#bbburst-shape-10" width="42.824419960900784" opacity="0.6962541757759748" transform="matrix(0.8977011951820805,-0.4406047709327082,0.4406047709327082,0.8977011951820805,275.72677160220974,167.03665977241405)" fill="none" stroke="#ff0066" filter="url(#bbburst-blur-1)"></use><use xlink:href="#bbburst-shape-10" width="39.7704579696341" opacity="0.3793335209024912" transform="matrix(0.9422005740717544,-0.33504936683846537,0.33504936683846537,0.9422005740717544,518.7371683725377,-35.792810206378704)" fill="none" stroke="#ff0066" filter="url(#bbburst-blur-2)"></use><use xlink:href="#bbburst-shape-10" width="41.250950068939154" opacity="0.630437784157653" transform="matrix(0.7507461405874295,0.6605908206999849,-0.6605908206999849,0.7507461405874295,799.722095088925,155.8236519224456)" fill="none" stroke="#0071e3" filter="url(#bbburst-blur-1)"></use><use xlink:href="#bbburst-shape-1" width="25.379315381528684" opacity="0.7164758150777849" transform="matrix(0.8440226320379624,0.5363075578506333,-0.5363075578506333,0.8440226320379624,634.4677935357711,-68.23104604214114)" fill="#0071e3" filter="url(#bbburst-blur-1)"></use><use xlink:href="#bbburst-shape-1" width="54.822925426761486" opacity="0.39815542177481333" transform="matrix(0.9771740912412512,-0.212440098396783,0.212440098396783,0.9771740912412512,543.441606944255,105.7299380626871)" fill="#ff0066" filter="url(#bbburst-blur-2)"></use><use xlink:href="#bbburst-shape-13" width="50.49605102091354" opacity="0.12878737159518083" transform="matrix(1.2015806893647145,-0.3445342464049367,0.3445342464049367,1.2015806893647145,-116.425944455245,108.07922531983525)" fill="none" stroke="#0071e3" filter="url(#bbburst-blur-3)"></use><use xlink:href="#bbburst-shape-10" width="44.56414391910276" opacity="0.32689291168248213" transform="matrix(1.136261390935241,-0.5209702980688162,0.5209702980688162,1.136261390935241,-64.45176333577123,-239.12029521763628)" fill="none" stroke="#ff0066" filter="url(#bbburst-blur-3)"></use><use xlink:href="#bbburst-shape-10" width="56.5299193496512" opacity="0.23008077602911958" transform="matrix(1.2114305808731078,-0.30811677611815397,0.30811677611815397,1.2114305808731078,-102.1049391155423,-40.14156984511209)" fill="none" stroke="#0071e3" filter="url(#bbburst-blur-3)"></use><use xlink:href="#bbburst-shape-10" width="44.96463302779939" opacity="0.19182845200811993" transform="matrix(0.9411093071675662,-0.82268661831987,0.82268661831987,0.9411093071675662,-297.02850267438646,-67.4647197405535)" fill="none" stroke="#ff0066" filter="url(#bbburst-blur-3)"></use><use xlink:href="#bbburst-shape-10" width="30.832396755177044" opacity="0.872327558395398" transform="matrix(0.743765370249454,-0.6684407782426898,0.6684407782426898,0.743765370249454,103.90299463562633,167.59901317367456)" fill="none" stroke="#ff0066"></use><use xlink:href="#bbburst-shape-10" width="32.555172282359045" opacity="0.7569240587724567" transform="matrix(0.9904584285548098,-0.13781183296341673,0.13781183296341673,0.9904584285548098,268.5209461981201,-85.24729551826658)" fill="none" stroke="#0071e3" filter="url(#bbburst-blur-1)"></use><use xlink:href="#bbburst-shape-10" width="31.684532142252746" opacity="0.8255498543836979" transform="matrix(0.9994054751353796,0.0344774748122042,-0.0344774748122042,0.9994054751353796,474.13921617465974,18.64152591553136)" fill="none" stroke="#0071e3"></use><use xlink:href="#bbburst-shape-10" width="30.64136152926448" opacity="0.7137054936947234" transform="matrix(0.7884092148167479,-0.6151511277662093,0.6151511277662093,0.7884092148167479,250.3264395295388,24.541258066119042)" fill="none" stroke="#ff0066" filter="url(#bbburst-blur-1)"></use><use xlink:href="#bbburst-shape-10" width="39.922933558338556" opacity="0.3701403219609948" transform="matrix(0.9978813971449083,0.0650593362410488,-0.0650593362410488,0.9978813971449083,292.7776488246939,-260.2462702256983)" fill="none" stroke="#0071e3" filter="url(#bbburst-blur-2)"></use><use xlink:href="#bbburst-shape-10" width="34.782566711278214" opacity="0.30909018021555745" transform="matrix(1.1379808798168216,-0.5172035548711287,0.5172035548711287,1.1379808798168216,314.9880861578862,-322.959096994031)" fill="none" stroke="#0071e3" filter="url(#bbburst-blur-3)"></use><use xlink:href="#bbburst-shape-1" width="60.320651004625006" opacity="-0.049338689449872186" transform="matrix(1.746853367757649,-0.1048966708421193,0.1048966708421193,1.746853367757649,644.4051278684162,33.23135918828177)" fill="#0071e3" filter="url(#bbburst-blur-4)"></use><use xlink:href="#bbburst-shape-1" width="40.765794249974746" opacity="0.572343738095477" transform="matrix(0.7149395112870053,-0.6991863093630324,0.6991863093630324,0.7149395112870053,-62.85413208400979,35.60684070272009)" fill="#0071e3" filter="url(#bbburst-blur-1)"></use><use xlink:href="#bbburst-shape-1" width="46.57949741165807" opacity="0.08276433418773288" transform="matrix(1.736191029521252,0.2194099109200297,-0.2194099109200297,1.736191029521252,679.8958986891602,-640.4716967758771)" fill="#0071e3" filter="url(#bbburst-blur-4)"></use><use xlink:href="#bbburst-shape-10" width="45.61114309238502" opacity="0.3282627792322881" transform="matrix(1.0745591181278016,0.638609976157906,-0.638609976157906,1.0745591181278016,757.6514038843817,230.05373153778817)" fill="none" stroke="#ff0066" filter="url(#bbburst-blur-3)"></use><use xlink:href="#bbburst-shape-10" width="49.02361103679073" opacity="0.08248190509407893" transform="matrix(1.550333112617755,-0.8117679717264925,0.8117679717264925,1.550333112617755,-302.05112294860623,-435.43563069447526)" fill="none" stroke="#ff0066" filter="url(#bbburst-blur-4)"></use><use xlink:href="#bbburst-shape-10" width="42.82404177639986" opacity="0.5349324509851394" transform="matrix(0.9998611257481644,0.016665209798057693,-0.016665209798057693,0.9998611257481644,480.0737094749301,-186.87054142209635)" fill="none" stroke="#0071e3" filter="url(#bbburst-blur-2)"></use><use xlink:href="#bbburst-shape-13" width="52.210370517873436" opacity="0.1297179885221177" transform="matrix(0.8887416290836376,0.8789984736811332,-0.8789984736811332,0.8887416290836376,527.2200355989885,-314.44726729745656)" fill="none" stroke="#0071e3" filter="url(#bbburst-blur-3)"></use><use xlink:href="#bbburst-shape-13" width="35.17373852586241" opacity="0.17438424296036914" transform="matrix(0.9915388640310265,0.761150892475376,-0.761150892475376,0.9915388640310265,776.8225797527481,-370.51294436567474)" fill="none" stroke="#0071e3" filter="url(#bbburst-blur-3)"></use><use xlink:href="#bbburst-shape-10" width="31.6906807094363" opacity="0.5657855514657661" transform="matrix(0.7216585203379884,-0.6922492181458821,0.6922492181458821,0.7216585203379884,93.03484915918625,-72.20076475253356)" fill="none" stroke="#0071e3" filter="url(#bbburst-blur-1)"></use><use xlink:href="#bbburst-shape-13" width="46.23992394445796" opacity="0.48619794904637503" transform="matrix(0.9031915019602661,0.4292378254380183,-0.4292378254380183,0.9031915019602661,709.1878889040978,197.25124018684528)" fill="none" stroke="#ff0066" filter="url(#bbburst-blur-2)"></use><use xlink:href="#bbburst-shape-13" width="34.67632071442602" opacity="0.2075376462768609" transform="matrix(1.0545851674938123,-0.6710813099036866,0.6710813099036866,1.0545851674938123,159.9616112364841,343.34106590999943)" fill="none" stroke="#0071e3" filter="url(#bbburst-blur-3)"></use><use xlink:href="#bbburst-shape-10" width="34.31647579337088" opacity="0.5245017000226833" transform="matrix(0.7733306094689856,0.6340029719633239,-0.6340029719633239,0.7733306094689856,821.18313509228,-34.56930841409934)" fill="none" stroke="#0071e3" filter="url(#bbburst-blur-2)"></use><use xlink:href="#bbburst-shape-10" width="42.08151757262892" opacity="0.5729026321389644" transform="matrix(0.822872242582586,0.568226427040406,-0.568226427040406,0.822872242582586,801.9988232124268,50.77267357432066)" fill="none" stroke="#ff0066" filter="url(#bbburst-blur-1)"></use><use xlink:href="#bbburst-shape-1" width="51.476571294067085" opacity="0.4076850570696787" transform="matrix(0.9783894681832203,-0.20677052146801647,0.20677052146801647,0.9783894681832203,30.493874164493718,-36.904903873379794)" fill="#0071e3" filter="url(#bbburst-blur-2)"></use><use xlink:href="#bbburst-shape-10" width="46.61601862494333" opacity="-0.07040780692983195" transform="matrix(1.38014353301004,-1.0759664624376377,1.0759664624376377,1.38014353301004,284.92974411332625,-460.5554290873244)" fill="none" stroke="#ff0066" filter="url(#bbburst-blur-4)"></use><use xlink:href="#bbburst-shape-13" width="52.23176519741275" opacity="0.13180371644269806" transform="matrix(0.929068050203826,0.8362610585758858,-0.8362610585758858,0.929068050203826,1034.9979103397277,-210.65418247497476)" fill="none" stroke="#0071e3" filter="url(#bbburst-blur-3)"></use><use xlink:href="#bbburst-shape-1" width="30.390653424823675" opacity="0.17365667388183048" transform="matrix(1.1622274513709243,-0.4601384044826574,0.4601384044826574,1.1622274513709243,553.7253922733554,-167.17013263743127)" fill="#ff0066" filter="url(#bbburst-blur-3)"></use><use xlink:href="#bbburst-shape-13" width="38.26876336284422" opacity="0.34194048236241414" transform="matrix(0.9147703572464716,-0.40397424856438907,0.40397424856438907,0.9147703572464716,436.7824155140299,-160.8819510722359)" fill="none" stroke="#0071e3" filter="url(#bbburst-blur-2)"></use><use xlink:href="#bbburst-shape-13" width="34.727266958523025" opacity="0.37320444308814427" transform="matrix(0.9683601519690429,0.24955683937430378,-0.24955683937430378,0.9683601519690429,502.9894030991462,-273.0266658963857)" fill="none" stroke="#0071e3" filter="url(#bbburst-blur-2)"></use><use xlink:href="#bbburst-shape-13" width="28.552762732345766" opacity="0.866578610691422" transform="matrix(0.9491057005022596,0.31495772616990203,-0.31495772616990203,0.9491057005022596,542.9449440504604,-35.84749281382466)" fill="none" stroke="#ff0066"></use><use xlink:href="#bbburst-shape-10" width="35.59483303733195" opacity="0.13876872776456162" transform="matrix(0.9351151656851724,-0.8294935966634056,0.8294935966634056,0.9351151656851724,-118.62757065395499,388.904025367608)" fill="none" stroke="#0071e3" filter="url(#bbburst-blur-3)"></use><use xlink:href="#bbburst-shape-10" width="37.20756293433617" opacity="0.0997191090428492" transform="matrix(1.6854030740484036,-0.47108011843867004,0.47108011843867004,1.6854030740484036,384.69287156030555,84.33884269890757)" fill="none" stroke="#ff0066" filter="url(#bbburst-blur-4)"></use></svg>