<svg xmlns="http://www.w3.org/2000/svg" version="1.1" xmlns:xlink="http://www.w3.org/1999/xlink" xmlns:svgjs="http://svgjs.dev/svgjs" viewBox="0 0 800 800"><defs><radialGradient id="ccclaymoji-grad-dark" r="93%" cx="20%" cy="20%">
      <stop offset="70%" stopColor="hsl(351, 100%, 67%)" stopOpacity="0"></stop>
      <stop offset="97%" stopColor="#c61945" stopOpacity="1"></stop>
    </radialGradient><radialGradient id="ccclaymoji-grad-light" r="65%" cx="28%" cy="20%">
    <stop offset="0%" stopColor="#ff8b9e" stopOpacity="0.75"></stop>
    <stop offset="100%" stopColor="hsl(351, 100%, 67%)" stopOpacity="0"></stop>
  </radialGradient><filter id="ccclaymoji-blur" x="-100%" y="-100%" width="400%" height="400%" filterUnits="objectBoundingBox" primitiveUnits="userSpaceOnUse" colorInterpolationFilters="sRGB">
	<feGaussianBlur stdDeviation="30" x="0%" y="0%" width="100%" height="100%" in="SourceGraphic" edgeMode="none" result="blur"></feGaussianBlur></filter><filter id="inner-blur" x="-100%" y="-100%" width="400%" height="400%" filterUnits="objectBoundingBox" primitiveUnits="userSpaceOnUse" colorInterpolationFilters="sRGB">
	<feGaussianBlur stdDeviation="2" x="0%" y="0%" width="100%" height="100%" in="SourceGraphic" edgeMode="none" result="blur"></feGaussianBlur></filter><filter id="eye-shadow" x="-100%" y="-100%" width="400%" height="400%" filterUnits="objectBoundingBox" primitiveUnits="userSpaceOnUse" colorInterpolationFilters="sRGB">
	<feDropShadow stdDeviation="10" dx="10" dy="10" floodColor="#000000" floodOpacity="0.2" x="0%" y="0%" width="100%" height="100%" result="dropShadow"></feDropShadow>
</filter><linearGradient gradientTransform="rotate(-25)" id="eye-light" x1="50%" y1="0%" x2="50%" y2="100%">
      <stop offset="20%" stopColor="#555555" stopOpacity="1"></stop>
      <stop offset="100%" stopColor="black" stopOpacity="0"></stop>
    </linearGradient><linearGradient id="mouth-light" x1="50%" y1="0%" x2="50%" y2="100%">
    <stop offset="0%" stopColor="#ffffff" stopOpacity="1"></stop>
    <stop offset="100%" stopColor="hsla(0, 0%, 100%, 1.00)" stopOpacity="0"></stop>
  </linearGradient><filter id="mouth-shadow" x="-100%" y="-100%" width="400%" height="400%" filterUnits="objectBoundingBox" primitiveUnits="userSpaceOnUse" colorInterpolationFilters="sRGB">
	<feDropShadow stdDeviation="10" dx="10" dy="10" floodColor="#cccccc" floodOpacity="0.2" x="0%" y="0%" width="100%" height="100%" result="dropShadow"></feDropShadow>
</filter></defs><g strokeLinecap="round"><path d="M700 450.00001225638584C700 633.5498774854964 583.5498652291105 782.3450257334748 400 782.3450257334748C216.45094339622642 782.3450257334748 100 633.5498774854964 100 450.00001225638584C100 266.45095565261227 216.45094339622642 117.65499877929688 400 117.65499877929688C583.5498652291105 117.65499877929688 700 266.45095565261227 700 450.00001225638584Z " fill="#c61945" opacity="0.25" filter="url(#ccclaymoji-blur)"></path><path d="M700 400.00000756418603C700 594.008554572733 594.008547008547 682.905990470169 400 682.905990470169C205.9923076923077 682.905990470169 100 594.008554572733 100 400.00000756418603C100 205.99231525649373 205.9923076923077 117.09402465820312 400 117.09402465820312C594.008547008547 117.09402465820312 700 205.99231525649373 700 400.00000756418603Z " fill="hsl(351, 100%, 67%)"></path><path d="M700 400.00000756418603C700 594.008554572733 594.008547008547 682.905990470169 400 682.905990470169C205.9923076923077 682.905990470169 100 594.008554572733 100 400.00000756418603C100 205.99231525649373 205.9923076923077 117.09402465820312 400 117.09402465820312C594.008547008547 117.09402465820312 700 205.99231525649373 700 400.00000756418603Z " fill="url(#ccclaymoji-grad-dark)"></path><path d="M700 400.00000756418603C700 594.008554572733 594.008547008547 682.905990470169 400 682.905990470169C205.9923076923077 682.905990470169 100 594.008554572733 100 400.00000756418603C100 205.99231525649373 205.9923076923077 117.09402465820312 400 117.09402465820312C594.008547008547 117.09402465820312 700 205.99231525649373 700 400.00000756418603Z " fill="url(#ccclaymoji-grad-light)"></path><ellipse rx="23.5" ry="25" cx="350" cy="375" fill="black" filter="url(#eye-shadow)"></ellipse><ellipse rx="23.5" ry="25" cx="350" cy="375" fill="url(#eye-light)" filter="url(#inner-blur)"></ellipse><ellipse rx="23.5" ry="25" cx="450" cy="375" fill="black" filter="url(#eye-shadow)"></ellipse><ellipse rx="23.5" ry="25" cx="450" cy="375" fill="url(#eye-light)" filter="url(#inner-blur)"></ellipse><path d="M350 512.5Q400 562.5 450 512.5 " strokeWidth="28" stroke="hsla(0, 0%, 100%, 1.00)" fill="none" filter="url(#mouth-shadow)"></path><path d="M350 512.5Q400 562.5 450 512.5 " strokeWidth="9.333333333333334" stroke="url(#mouth-light)" fill="none" filter="url(#inner-blur)"></path></g></svg>