<?xml version="1.0" encoding="utf-8"?>
<!-- Generator: Adobe Illustrator 23.0.1, SVG Export Plug-In . SVG Version: 6.00 Build 0)  -->
<svg version="1.1" id="レイヤー_1" xmlns="http://www.w3.org/2000/svg" xmlns:xlink="http://www.w3.org/1999/xlink" x="0px"
	 y="0px" viewBox="0 0 300 300" style="enable-background:new 0 0 300 300;" xml:space="preserve">
<style type="text/css">
	.st0{display:none;}
	.st1{display:inline;filter:url(#Adobe_OpacityMaskFilter);}
	.st2{display:inline;mask:url(#SVGID_2_);}
	.st3{fill:url(#SVGID_1_);}
	.st4{fill:#231815;}
</style>
<g class="st0">
	<defs>
		<filter id="Adobe_OpacityMaskFilter" filterUnits="userSpaceOnUse" x="716.3" y="256.2" width="263.3" height="33.8">
			<feColorMatrix  type="matrix" values="1 0 0 0 0  0 1 0 0 0  0 0 1 0 0  0 0 0 1 0"/>
		</filter>
	</defs>
	<mask maskUnits="userSpaceOnUse" x="716.3" y="256.2" width="33.3" height="33.8" id="SVGID_2_" style="display:inline;">
		<g style="filter:url(#Adobe_OpacityMaskFilter);">
			
				<image style="overflow:visible;enable-background:new    ;" width="38" height="38" xlink:href="A32FB247.jpg"  transform="matrix(1 0 0 1 714 253.9999)">
			</image>
		</g>
	</mask>
	<g class="st2">
		
			<linearGradient id="SVGID_1_" gradientUnits="userSpaceOnUse" x1="846.8976" y1="36.5345" x2="848.8464" y2="14.5452" gradientTransform="matrix(1 0 0 -1 0 299.46)">
			<stop  offset="0" style="stopColor:#040000;stop-opacity:0"/>
			<stop  offset="1" style="stopColor:#040000"/>
		</linearGradient>
		<polygon class="st3" points="916.8,256.2 979.6,274.8 818.9,290 716.3,274.8 		"/>
	</g>
</g>
<path class="st4" d="M229.1,80.4c-1.7-2.6-3.5-5-5.4-7.4s-3.9-4.7-6.1-6.8c-2.1-2.2-4.3-4.2-6.7-6.2c-2.3-2-4.7-3.8-7.2-5.6
	c-3.7-2.6-7.6-5-11.6-7.2s-8.2-4.1-12.4-5.7c-4.2-1.7-8.6-3.1-13-4.2c-4.4-1.1-8.9-2-13.4-2.6c-2.3-0.3-4.6-0.5-6.8-0.7
	c-2.2-0.3-4.5-0.4-6.8-0.4s-4.6,0-6.9,0.1c-2.3,0.1-4.6,0.3-6.9,0.6c-2.3,0.3-4.6,0.6-6.9,1s-4.5,0.9-6.8,1.5s-4.5,1.2-6.7,1.9
	c-2.2,0.7-4.4,1.5-6.6,2.4L33.3,67.8c-1.8,0.7-3.6,1.6-5.3,2.4c-1.7,0.9-3.3,1.8-4.9,2.9c-1.6,1-3.1,2.1-4.5,3.2s-2.8,2.3-4,3.6
	c-1.9,1.9-3.6,3.8-5.2,5.9S6.5,90,5.3,92.3c-1.2,2.3-2.2,4.6-3,7c-0.7,2.4-1.3,4.9-1.7,7.3c-0.2,1.3-0.3,2.5-0.4,3.8
	C0,111.7,0,113,0,114.3c0,1.3,0.1,2.6,0.2,3.9s0.3,2.6,0.5,3.9c0.3,1.2,0.6,2.5,0.9,3.8c0.4,1.3,0.8,2.6,1.2,3.9
	c0.5,1.3,1,2.6,1.6,3.8c0.6,1.3,1.2,2.5,1.9,3.8c0.9,1.7,2,3.3,3.1,4.8s2.3,3,3.6,4.5c1.3,1.4,2.6,2.8,4,4.1s2.9,2.5,4.4,3.7
	c2.3,1.8,4.7,3.4,7.3,4.8c2.5,1.4,5.2,2.7,7.9,3.8s5.5,2,8.4,2.8c2.9,0.7,5.8,1.3,8.7,1.7c1.5,0.2,3,0.3,4.5,0.4
	c1.5,0.1,3,0.1,4.5,0.1c1.5,0,3-0.1,4.5-0.2c1.5-0.1,3-0.3,4.5-0.5s3-0.5,4.5-0.8s3-0.7,4.4-1.1c1.5-0.4,2.9-0.9,4.3-1.4
	s2.8-1.1,4.2-1.7l58-25.5c2.6-1.1,4.7-2.7,6.4-4.5s2.9-3.9,3.6-6.2c0.7-2.2,0.9-4.6,0.6-7c-0.3-2.4-1.2-4.8-2.6-7.1
	c-1.4-2.3-3.3-4.2-5.5-5.8c-2.2-1.6-4.6-2.8-7.2-3.6c-2.6-0.8-5.3-1.1-8-1s-5.4,0.7-8,1.8L69,128.3c-0.6,0.2-1.1,0.4-1.7,0.6
	s-1.1,0.3-1.7,0.5c-0.6,0.1-1.1,0.2-1.7,0.3c-0.6,0.1-1.1,0.1-1.7,0.1c-0.9,0-1.7,0-2.6-0.1c-0.9-0.1-1.7-0.2-2.5-0.4
	s-1.7-0.4-2.5-0.7c-0.8-0.3-1.6-0.6-2.3-1c-0.4-0.2-0.8-0.4-1.1-0.6c-0.4-0.2-0.7-0.4-1.1-0.7c-0.3-0.2-0.7-0.5-1-0.7
	c-0.3-0.3-0.6-0.5-0.9-0.8c-0.3-0.3-0.6-0.6-0.9-0.9c-0.3-0.3-0.6-0.6-0.8-0.9c-0.3-0.3-0.5-0.7-0.7-1s-0.5-0.7-0.7-1.1
	c-0.3-0.5-0.5-1-0.8-1.5c-0.2-0.5-0.4-1-0.6-1.5c-0.2-0.5-0.3-1-0.4-1.5c-0.1-0.5-0.2-1-0.2-1.5c-0.1-0.7-0.1-1.5,0-2.2
	s0.2-1.5,0.4-2.2s0.4-1.4,0.7-2.1s0.7-1.3,1.1-2c0.2-0.3,0.4-0.6,0.7-0.9c0.2-0.3,0.5-0.6,0.7-0.9c0.3-0.3,0.5-0.6,0.8-0.8
	c0.3-0.3,0.6-0.5,0.9-0.8c0.3-0.3,0.6-0.5,0.9-0.7c0.3-0.2,0.7-0.5,1-0.7c0.4-0.2,0.7-0.4,1.1-0.6c0.4-0.2,0.8-0.4,1.2-0.5l66-27.6
	c1.7-0.7,3.4-1.3,5.1-1.8s3.4-1,5.2-1.4c1.7-0.4,3.5-0.7,5.2-0.9c1.8-0.2,3.5-0.3,5.3-0.4c2.6-0.1,5.3,0,7.9,0.2
	c2.6,0.2,5.3,0.6,7.9,1.2c2.6,0.6,5.2,1.3,7.7,2.1c2.5,0.9,4.9,1.9,7.3,3c1.2,0.6,2.3,1.2,3.5,1.8c1.1,0.7,2.3,1.3,3.4,2.1
	c1.1,0.7,2.2,1.5,3.2,2.3c1,0.8,2.1,1.6,3,2.5c1,0.9,2,1.7,2.9,2.7c0.9,0.9,1.8,1.9,2.7,2.9s1.7,2,2.5,3.1s1.6,2.2,2.3,3.3
	c1,1.5,1.8,3,2.6,4.6c0.8,1.5,1.5,3.1,2,4.6c0.6,1.6,1.1,3.1,1.5,4.7s0.7,3.1,1,4.7c0.4,2.4,0.5,4.7,0.5,7.1c0,2.3-0.3,4.7-0.7,7
	c-0.4,2.3-1,4.6-1.8,6.8c-0.8,2.2-1.8,4.4-3,6.4c-0.6,1-1.2,2.1-1.9,3c-0.7,1-1.4,2-2.2,2.9c-0.8,0.9-1.6,1.9-2.4,2.8
	c-0.8,0.9-1.7,1.8-2.7,2.6c-0.9,0.8-1.9,1.7-2.9,2.4c-1,0.8-2.1,1.5-3.2,2.3c-1.1,0.7-2.3,1.4-3.5,2c-1.2,0.6-2.4,1.3-3.7,1.8
	l-93.6,42.3l36.4,54.9c1.7,2.5,3.8,4.6,6.2,6.2c2.4,1.6,5.1,2.8,7.9,3.5c2.8,0.7,5.7,0.9,8.6,0.6c2.9-0.3,5.7-1.2,8.3-2.6
	c2.5-1.4,4.6-3.2,6.2-5.2c1.6-2,2.7-4.3,3.4-6.8c0.6-2.4,0.8-5,0.4-7.5c-0.4-2.5-1.2-5.1-2.7-7.5c-0.1-0.1-0.1-0.2-0.2-0.3
	c-0.1-0.1-0.1-0.2-0.2-0.3c0-0.1-0.1-0.2-0.2-0.3c-0.1-0.1-0.1-0.2-0.2-0.3L142,220.8l53-24.5c3-1.4,5.8-2.9,8.6-4.5
	c2.7-1.6,5.3-3.4,7.8-5.2s4.8-3.8,7-5.8s4.2-4.1,6.1-6.3c2.8-3.3,5.4-6.7,7.6-10.3c2.2-3.6,4.1-7.3,5.6-11.1s2.8-7.7,3.7-11.7
	s1.4-8,1.7-12.1c0.1-2,0.1-4.1,0.1-6.2c-0.1-2.1-0.2-4.1-0.4-6.2s-0.6-4.1-0.9-6.2c-0.4-2.1-0.9-4.1-1.5-6.2c-0.6-2-1.2-4.1-2-6.1
	c-0.7-2-1.6-4.1-2.5-6.1s-1.9-4-3-6C231.6,84.3,230.4,82.3,229.1,80.4"/>
</svg>
